<svg width="130" height="40" viewBox="0 0 130 40" fill="none" xmlns="http://www.w3.org/2000/svg">
<path d="M68.511 20.0668C68.4459 21.1352 68.3862 22.0033 68.3319 22.6711C68.2885 23.3389 68.2505 23.8843 68.218 24.3072C68.1854 24.719 68.1583 25.0473 68.1366 25.2922C68.1149 25.5259 68.0986 25.7485 68.0877 25.9599C68.3374 26.6277 68.7064 27.1731 69.1948 27.596C69.6832 28.0078 70.2692 28.2137 70.953 28.2137C71.5499 28.2137 72.0709 28.0245 72.5159 27.6461C72.9717 27.2565 73.3461 26.7557 73.6392 26.1436C73.9431 25.5314 74.171 24.847 74.3229 24.0902C74.4749 23.3333 74.5508 22.5821 74.5508 21.8364C74.5508 21.2243 74.4966 20.6567 74.388 20.1336C74.2904 19.6105 74.1384 19.1597 73.9322 18.7813C73.726 18.3918 73.4655 18.0913 73.1508 17.8798C72.8469 17.6572 72.4833 17.5459 72.06 17.5459C71.7127 17.5459 71.3654 17.6183 71.0181 17.7629C70.6817 17.8965 70.3561 18.0746 70.0413 18.2972C69.7266 18.5086 69.439 18.7535 69.1785 19.0317C68.9289 19.2988 68.7227 19.5604 68.5599 19.8164L68.511 20.0668ZM68.8366 15.1753C69.7483 14.5409 70.7034 14.0345 71.7019 13.6561C72.7004 13.2777 73.7423 13.0885 74.8276 13.0885C75.8478 13.0885 76.7269 13.3055 77.4649 13.7396C78.2138 14.1625 78.8324 14.7412 79.3208 15.4758C79.8092 16.1992 80.1674 17.0339 80.3953 17.98C80.6341 18.926 80.7535 19.9165 80.7535 20.9516C80.7535 21.8531 80.6666 22.7657 80.493 23.6895C80.3193 24.6132 80.0643 25.5092 79.7278 26.3773C79.3914 27.2343 78.9735 28.0412 78.4743 28.798C77.975 29.5548 77.3998 30.217 76.7486 30.7846C76.1083 31.3411 75.392 31.7807 74.5997 32.1035C73.8074 32.4263 72.95 32.5876 72.0275 32.5876C71.2135 32.5876 70.432 32.4207 69.6832 32.0868C68.9452 31.7529 68.2505 31.3189 67.5993 30.7846C67.5993 30.8403 67.5831 31.0462 67.5505 31.4023C67.5288 31.7474 67.4962 32.1703 67.4528 32.6711C67.4094 33.172 67.3606 33.7062 67.3063 34.2738C67.252 34.8525 67.2032 35.3923 67.1598 35.8932C67.1164 36.394 67.0784 36.8169 67.0458 37.1619C67.0241 37.5181 67.0133 37.724 67.0133 37.7796C67.0133 37.8687 67.0133 37.941 67.0133 37.9967C67.0241 38.0634 67.0296 38.1247 67.0296 38.1803C67.0296 38.2693 66.9861 38.3417 66.8993 38.3973C66.8233 38.4641 66.6443 38.5364 66.3621 38.6144L62.0805 39.7329C61.9611 39.7663 61.8037 39.8164 61.6084 39.8831C61.413 39.961 61.2231 40 61.0386 40C60.8866 40 60.751 39.961 60.6316 39.8831C60.523 39.8052 60.4688 39.6605 60.4688 39.4491L62.4549 15.0083C62.4875 14.6411 62.5255 14.3907 62.5689 14.2571C62.6231 14.1124 62.748 14.0178 62.9433 13.9733C63.931 13.773 64.9457 13.5726 65.9876 13.3723C67.0296 13.1608 68.0443 12.8937 69.032 12.571C69.1188 12.571 69.1676 12.5876 69.1785 12.621C69.2002 12.6433 69.2111 12.6822 69.2111 12.7379C69.2111 12.7602 69.2056 12.7935 69.1948 12.8381C69.1948 12.8826 69.1785 12.9827 69.1459 13.1386C69.1242 13.2944 69.0862 13.5337 69.032 13.8564C68.9886 14.1681 68.9234 14.6077 68.8366 15.1753Z" fill="#0D1B2A"/>
<path d="M92.5238 13.0885C93.5548 13.0885 94.4882 13.2888 95.3239 13.6895C96.1705 14.079 96.8922 14.591 97.4891 15.2254C98.0969 15.8486 98.5636 16.5498 98.8892 17.3289C99.2148 18.108 99.3776 18.887 99.3776 19.6661C99.3776 20.3561 99.1714 21.0518 98.759 21.7529C98.3465 22.443 97.7659 23.0662 97.017 23.6227C96.279 24.1792 95.389 24.6299 94.3471 24.975C93.3052 25.32 92.1602 25.4925 90.9121 25.4925C90.2609 25.4925 89.5771 25.4257 88.8608 25.2922C88.9042 25.7707 89.0399 26.1825 89.2678 26.5275C89.4957 26.8726 89.7834 27.1564 90.1307 27.379C90.478 27.6016 90.8687 27.7685 91.3028 27.8798C91.7478 27.98 92.2036 28.0301 92.6703 28.0301C93.1913 28.0301 93.6905 27.9855 94.1681 27.8965C94.6565 27.7963 95.1231 27.6683 95.5681 27.5125C96.0131 27.3567 96.4418 27.1842 96.8542 26.995C97.2667 26.8058 97.6574 26.6166 98.0264 26.4274C98.1241 26.4051 98.2055 26.3884 98.2706 26.3773C98.3465 26.355 98.4171 26.3439 98.4822 26.3439C98.4822 26.3439 98.4768 26.4329 98.4659 26.611C98.4659 26.7891 98.4659 27.0395 98.4659 27.3623C98.4659 27.685 98.4605 28.0746 98.4497 28.5309C98.4497 28.9872 98.4442 29.4936 98.4334 30.0501C98.4659 30.1057 98.4876 30.1614 98.4985 30.217C98.5094 30.2727 98.5148 30.3172 98.5148 30.3506C98.5148 30.4841 98.3954 30.6288 98.1566 30.7846C97.9178 30.9405 97.6031 31.1018 97.2124 31.2688C96.8325 31.4357 96.393 31.5971 95.8937 31.7529C95.4053 31.9087 94.9061 32.0479 94.396 32.1703C93.8859 32.3038 93.3921 32.404 92.9145 32.4708C92.437 32.5487 92.0191 32.5876 91.661 32.5876C90.4888 32.5876 89.3492 32.3762 88.2422 31.9533C87.146 31.5415 86.1692 30.946 85.3118 30.1669C84.4653 29.3879 83.7869 28.4418 83.2768 27.3289C82.7667 26.2159 82.5117 24.9638 82.5117 23.5726C82.5117 22.1146 82.7559 20.7513 83.2443 19.4825C83.7327 18.2026 84.4164 17.0896 85.2955 16.1436C86.1855 15.1976 87.2437 14.4519 88.4701 13.9065C89.6965 13.3612 91.0478 13.0885 92.5238 13.0885ZM92.3284 17.5292C91.8835 17.5292 91.471 17.6294 91.0912 17.8297C90.7222 18.0189 90.3803 18.2972 90.0655 18.6644C89.7617 19.0206 89.4957 19.4546 89.2678 19.9666C89.0399 20.4674 88.8554 21.0239 88.7143 21.6361C89.8322 21.4357 90.7601 21.2243 91.4982 21.0017C92.2362 20.7791 92.8277 20.5565 93.2727 20.3339C93.7177 20.1002 94.0324 19.872 94.2169 19.6494C94.4014 19.4157 94.4937 19.1931 94.4937 18.9816C94.4937 18.7813 94.4177 18.5921 94.2657 18.414C94.1246 18.2359 93.9456 18.0801 93.7285 17.9466C93.5114 17.813 93.2727 17.7129 93.0122 17.6461C92.7626 17.5682 92.5346 17.5292 92.3284 17.5292Z" fill="#0D1B2A"/>
<path d="M114.73 18.1302C114.502 18.108 114.247 18.0857 113.964 18.0634C113.682 18.0301 113.384 18.0134 113.069 18.0134C112.591 18.0134 112.103 18.0579 111.604 18.1469C111.115 18.2248 110.66 18.3862 110.236 18.6311C109.813 18.8759 109.449 19.2154 109.146 19.6494C108.842 20.0723 108.646 20.6233 108.559 21.3022C108.483 22.1258 108.418 22.8047 108.364 23.3389C108.321 23.862 108.288 24.296 108.266 24.6411C108.245 24.975 108.223 25.2476 108.201 25.4591C108.19 25.6594 108.18 25.8486 108.169 26.0267C108.169 26.0712 108.158 26.1937 108.136 26.394C108.125 26.5943 108.104 26.828 108.071 27.0952C108.038 27.3623 108.006 27.6516 107.973 27.9633C107.952 28.2749 107.925 28.5643 107.892 28.8314C107.859 29.0985 107.832 29.3322 107.811 29.5326C107.8 29.7329 107.794 29.8553 107.794 29.8998C107.794 29.9889 107.794 30.0668 107.794 30.1336C107.805 30.1892 107.811 30.2449 107.811 30.3005C107.811 30.3895 107.767 30.4674 107.68 30.5342C107.604 30.5899 107.425 30.6567 107.143 30.7346L102.829 32.3205C102.71 32.3651 102.552 32.4207 102.357 32.4875C102.161 32.5543 101.972 32.5876 101.787 32.5876C101.635 32.5876 101.499 32.5487 101.38 32.4708C101.271 32.3929 101.217 32.2593 101.217 32.0701L102.617 15.5259C102.65 15.1586 102.688 14.9082 102.731 14.7746C102.786 14.6299 102.91 14.5353 103.106 14.4908C104.093 14.2905 105.114 14.0901 106.166 13.8898C107.219 13.6784 108.239 13.4112 109.227 13.0885C109.314 13.0885 109.363 13.1052 109.373 13.1386C109.395 13.1608 109.406 13.1998 109.406 13.2554C109.406 13.2777 109.401 13.3111 109.39 13.3556C109.39 13.4001 109.373 13.5003 109.341 13.6561C109.319 13.8119 109.281 14.0512 109.227 14.374C109.184 14.6856 109.118 15.1252 109.032 15.6928C109.531 15.2922 110.079 14.9249 110.676 14.591C111.284 14.2571 111.891 13.9733 112.499 13.7396C113.107 13.4947 113.693 13.3055 114.257 13.172C114.822 13.0273 115.316 12.9549 115.739 12.9549L114.73 18.1302Z" fill="#0D1B2A"/>
<path d="M124.904 18.8481C124.752 20.0167 124.606 21.1853 124.465 22.3539C124.335 23.5114 124.253 24.5965 124.221 25.6093C124.221 26.0434 124.253 26.4051 124.318 26.6945C124.383 26.9839 124.476 27.212 124.595 27.379C124.725 27.5459 124.877 27.6683 125.051 27.7462C125.225 27.813 125.42 27.8464 125.637 27.8464C125.984 27.8464 126.364 27.7963 126.777 27.6962C127.189 27.5849 127.601 27.4457 128.014 27.2788C128.144 27.2232 128.253 27.1842 128.339 27.1619C128.437 27.1285 128.519 27.1119 128.584 27.1119C128.692 27.1119 128.763 27.1619 128.795 27.2621C128.839 27.3623 128.877 27.5403 128.909 27.7963C128.953 28.0412 129.012 28.3751 129.088 28.798C129.164 29.2209 129.289 29.7551 129.463 30.4007C129.474 30.4563 129.479 30.5064 129.479 30.5509C129.49 30.5843 129.495 30.6177 129.495 30.6511C129.495 30.8069 129.436 30.9182 129.316 30.985C129.208 31.0518 129.023 31.1297 128.763 31.2187C128.318 31.3745 127.846 31.5359 127.346 31.7028C126.858 31.8587 126.37 32.0033 125.881 32.1369C125.404 32.2705 124.942 32.3762 124.497 32.4541C124.052 32.5431 123.662 32.5876 123.325 32.5876C121.513 32.5876 120.189 32.1258 119.353 31.202C118.528 30.2782 118.116 28.8703 118.116 26.9783C118.116 26.6555 118.127 26.3272 118.148 25.9933C118.17 25.6483 118.197 25.2922 118.23 24.9249C118.338 23.8119 118.43 22.7602 118.506 21.7696C118.593 20.7679 118.68 19.8108 118.767 18.8982H117.058C116.471 18.8982 116.048 18.8759 115.788 18.8314C115.527 18.7757 115.397 18.67 115.397 18.5142C115.397 18.4697 115.451 18.3528 115.56 18.1636C115.668 17.9633 115.804 17.7295 115.967 17.4624C116.14 17.1842 116.325 16.8893 116.52 16.5776C116.716 16.266 116.9 15.9766 117.074 15.7095C117.258 15.4313 117.416 15.192 117.546 14.9917C117.676 14.7913 117.758 14.6689 117.79 14.6244H118.946C119.044 13.7785 119.12 13.0718 119.174 12.5042C119.239 11.9254 119.288 11.4469 119.32 11.0684C119.364 10.69 119.402 10.4007 119.434 10.2003C119.467 9.98887 119.499 9.83306 119.532 9.73289C119.575 9.63272 119.624 9.57151 119.679 9.54925C119.744 9.51586 119.825 9.48804 119.923 9.46578C120.411 9.36561 120.883 9.27657 121.339 9.19866C121.795 9.10963 122.251 9.02059 122.707 8.93155C123.162 8.84251 123.624 8.74235 124.09 8.63105C124.568 8.50863 125.062 8.3695 125.572 8.21369C125.604 8.21369 125.626 8.21369 125.637 8.21369C125.648 8.20256 125.67 8.19699 125.702 8.19699C125.832 8.19699 125.897 8.24151 125.897 8.33055V8.36394C125.843 8.97607 125.756 9.82749 125.637 10.9182C125.528 12.0089 125.404 13.2443 125.263 14.6244H129.626C129.712 14.6244 129.794 14.6578 129.87 14.7245C129.957 14.7802 130 14.8804 130 15.025C130 15.0807 129.935 15.281 129.805 15.626C129.674 15.9711 129.49 16.4218 129.251 16.9783L128.665 18.3306C128.589 18.4975 128.508 18.6199 128.421 18.6978C128.345 18.7757 128.182 18.8258 127.932 18.8481H124.904Z" fill="#0D1B2A"/>
<path d="M22.9003 22.8381C22.4807 25.0343 21.4677 26.867 19.8614 28.3361C18.096 29.9388 15.6504 30.7401 12.5246 30.7401C6.9533 30.7401 3.27768 29.2784 1.49775 26.355C0.499249 24.7375 0 22.6451 0 20.0779C0 18.3862 0.332832 15.4331 0.998497 11.2187C1.66416 7.00427 1.99699 3.75441 1.99699 1.46912C1.99699 1.26136 2.22853 0.964571 2.6916 0.578742C3.15467 0.192914 3.55262 0 3.88546 0H14.2394C11.982 10.7735 10.8532 18.0301 10.8532 21.7696C10.8532 25.3459 12.568 27.1341 15.9977 27.1341C17.329 27.1341 18.6241 26.7409 19.8831 25.9544C21.1421 25.153 22.1478 24.1143 22.9003 22.8381ZM21.4243 21.6138C21.4243 17.1619 21.1855 13.3704 20.708 10.2393C20.2449 7.0933 19.3839 4.16991 18.1249 1.46912C18.1249 1.26136 18.3564 0.964571 18.8195 0.578742C19.2826 0.192914 19.6805 0 20.0134 0H27.3501C25.657 7.86496 24.3112 14.5724 23.3127 20.1224C23.2693 20.345 23.0233 20.6492 22.5747 21.0351C22.1406 21.4209 21.7571 21.6138 21.4243 21.6138Z" fill="#00B4D8"/>
<path d="M42.9354 30.2949C40.0267 20.0556 36.5247 10.4396 32.4295 1.44686C32.4295 1.25394 32.661 0.964571 33.1241 0.578742C33.6016 0.192914 34.0068 0 34.3396 0H45.4533C47.103 5.78742 48.6876 10.7884 50.207 15.0028C51.7265 19.2024 53.6367 23.8101 55.9376 28.8258C55.9376 29.0187 55.706 29.3155 55.2429 29.7162C54.7799 30.102 54.3819 30.2949 54.0491 30.2949H42.9354ZM51.3792 14.246C52.204 11.4413 52.6165 9.00761 52.6165 6.94491C52.6165 5.9655 52.5296 5.1048 52.356 4.36283C52.1823 3.60601 51.8784 2.63402 51.4443 1.44686C51.4443 1.25394 51.6758 0.964571 52.1389 0.578742C52.6165 0.192914 53.0217 0 53.3545 0H60.2788C58.5568 2.7008 57.1459 5.01577 56.0461 6.94491C54.9463 8.87405 54.0201 10.8032 53.2677 12.7323C53.1808 12.9698 52.9276 13.2814 52.5079 13.6672C52.0883 14.0531 51.712 14.246 51.3792 14.246ZM37.0529 15.9599C36.2281 18.6756 35.8157 20.9683 35.8157 22.8381C35.8157 24.7078 36.2064 26.7038 36.9878 28.8258C36.9878 29.0187 36.749 29.3155 36.2715 29.7162C35.8084 30.102 35.4105 30.2949 35.0776 30.2949H28.1316C31.5323 24.9379 33.8693 20.6492 35.1428 17.429C35.2296 17.1916 35.4828 16.8874 35.9025 16.5164C36.3366 16.1454 36.7201 15.9599 37.0529 15.9599Z" fill="#00B4D8"/>
</svg>
